<!DOCTYPE svg PUBLIC "-//W3C//DTD SVG 20010904//EN" "http://www.w3.org/TR/2001/REC-SVG-20010904/DTD/svg10.dtd">
<svg version="1.0" xmlns="http://www.w3.org/2000/svg" width="1000px" height="1000px" viewBox="0 0 10000 10000" preserveAspectRatio="xMidYMid meet">
<g id="layer1" fill="#ffffff" stroke="none">
 <path d="M5663 9596 c-4 -7 -34 -26 -66 -41 -32 -15 -61 -33 -64 -41 -3 -8 -11 -14 -19 -14 -7 0 -59 -44 -115 -97 -56 -54 -110 -106 -120 -115 -11 -10 -19 -25 -19 -33 0 -18 -41 -83 -74 -115 -17 -17 -26 -37 -26 -57 0 -17 -7 -36 -15 -43 -26 -21 -17 -47 32 -90 113 -99 288 -184 443 -215 47 -9 93 -21 102 -26 23 -12 151 -12 164 0 5 5 33 14 63 20 64 13 169 57 192 80 11 10 24 60 37 136 29 166 33 228 17 257 -7 14 -29 69 -50 122 -34 87 -43 102 -99 151 -33 30 -64 55 -69 55 -4 0 -25 11 -47 25 -22 14 -50 25 -63 25 -12 0 -32 7 -45 15 -16 12 -26 13 -42 5 -14 -7 -26 -8 -39 0 -28 14 -69 12 -78 -4z"/>
 <path d="M6765 9292 c-6 -5 -42 -19 -81 -31 -61 -18 -82 -30 -143 -87 -39 -36 -87 -94 -107 -127 -43 -73 -91 -212 -100 -289 l-6 -55 53 -41 c98 -73 220 -129 354 -162 28 -7 54 -17 59 -21 6 -5 60 -9 121 -9 61 0 115 4 121 9 5 4 31 14 57 21 70 19 132 64 156 113 l21 42 -20 17 c-26 21 -25 36 6 105 23 53 25 67 21 153 -5 103 -31 189 -72 238 -29 35 -118 84 -165 92 -22 3 -35 11 -35 20 0 12 -21 16 -115 18 -64 1 -120 -1 -125 -6z"/>
 <path d="M5081 8917 c-6 -8 -8 -16 -5 -19 2 -3 -4 -30 -16 -59 -11 -30 -20 -62 -20 -71 0 -10 -9 -22 -21 -29 -17 -9 -20 -17 -15 -41 3 -18 -2 -53 -15 -91 -12 -34 -27 -95 -35 -136 -41 -214 -57 -667 -30 -866 19 -141 16 -259 -7 -282 -22 -22 -45 -10 -69 38 -17 33 -20 34 -104 46 -50 6 -93 18 -103 27 -20 19 -136 23 -146 5 -4 -6 -27 -9 -51 -8 -24 2 -49 -2 -56 -9 -7 -7 -19 -12 -27 -12 -9 0 -54 -16 -101 -35 -47 -19 -93 -35 -103 -35 -20 0 -202 -94 -260 -133 -126 -86 -233 -187 -267 -253 -21 -42 -48 -173 -70 -339 -7 -49 -22 -135 -35 -190 -13 -55 -31 -138 -40 -185 -10 -47 -23 -110 -30 -140 -7 -30 -15 -62 -17 -70 -2 -11 5 -15 25 -15 15 0 28 5 28 10 2 18 23 41 79 89 209 178 801 485 1120 581 30 9 64 20 75 25 73 29 297 72 395 75 47 2 85 4 85 5 0 8 212 6 221 -1 6 -5 75 -8 155 -7 113 2 159 -2 214 -16 74 -20 136 -48 136 -63 -3 -45 112 65 180 172 82 129 118 265 126 466 7 172 -7 271 -72 544 -67 275 -72 301 -90 438 -15 118 -15 137 0 244 9 64 17 121 18 127 4 19 -44 18 -63 -1 -46 -50 -302 -67 -468 -31 -139 29 -348 116 -378 156 -6 8 -26 22 -45 31 -19 9 -40 28 -47 44 -14 29 -33 35 -51 14z"/>
 <path d="M6310 8608 c0 -2 0 -104 -1 -228 l0 -225 41 -160 c130 -509 126 -840 -14 -1110 -42 -81 -135 -175 -173 -175 -16 0 -38 -7 -49 -15 -19 -15 -19 -15 1 -30 11 -9 20 -21 20 -28 0 -7 13 -12 30 -12 17 0 29 5 28 10 -3 17 91 76 153 96 122 40 229 17 317 -69 44 -43 90 -112 92 -137 0 -17 75 -17 110 -1 18 9 38 16 44 16 6 0 41 13 76 29 134 61 231 190 272 361 27 113 25 355 -5 520 -13 69 -25 147 -27 174 -2 28 -9 70 -14 95 -6 25 -17 91 -25 146 -42 275 -45 363 -18 498 10 48 16 90 13 92 -10 11 -51 4 -58 -10 -6 -9 -41 -18 -106 -26 -174 -22 -365 17 -550 110 -55 27 -92 52 -92 61 0 10 -12 16 -32 18 -18 2 -33 2 -33 0z"/>
 <path d="M2841 7046 c-12 -18 -21 -37 -21 -41 0 -4 -11 -20 -24 -36 -36 -42 -92 -225 -156 -504 -11 -49 -35 -176 -50 -270 -6 -38 -15 -95 -20 -125 -5 -30 -14 -91 -19 -135 -69 -554 -79 -619 -118 -825 -12 -65 -17 -129 -15 -202 3 -93 -1 -124 -28 -235 -31 -124 -32 -136 -33 -348 0 -293 26 -540 75 -695 52 -164 159 -330 278 -427 36 -30 77 -65 93 -79 29 -27 68 -29 73 -4 1 8 14 49 29 90 35 102 51 189 75 435 12 116 29 242 37 280 24 107 26 250 8 465 -12 141 -17 333 -18 690 -2 541 -4 523 67 910 14 74 28 171 32 215 4 44 15 100 24 125 27 70 32 143 21 301 -18 250 -71 370 -187 425 -71 34 -98 32 -123 -10z"/>
 <path d="M5210 6670 c-14 -9 -212 -45 -310 -57 -25 -3 -54 -12 -65 -19 -11 -8 -29 -14 -42 -14 -12 0 -32 -4 -45 -9 -13 -5 -57 -19 -98 -31 -103 -31 -325 -123 -440 -183 -123 -64 -325 -198 -423 -282 -83 -70 -144 -143 -204 -240 -20 -33 -73 -109 -118 -170 -44 -60 -87 -123 -96 -140 -62 -112 -118 -470 -105 -669 10 -157 45 -412 69 -510 24 -97 42 -120 77 -98 18 11 20 10 20 -8 0 -39 -30 -216 -60 -360 -17 -80 -35 -167 -40 -195 -4 -27 -22 -120 -39 -205 -17 -85 -33 -191 -37 -235 -4 -44 -11 -91 -17 -105 -10 -26 -26 -129 -52 -335 -36 -289 -6 -601 82 -865 100 -299 285 -567 542 -784 273 -230 615 -376 1006 -427 50 -6 94 -16 99 -20 15 -13 333 -11 341 2 4 6 24 9 44 8 20 -2 42 1 49 5 7 4 27 7 45 5 17 -1 40 1 50 5 41 15 55 18 102 26 28 4 97 22 155 40 58 17 124 35 147 39 24 4 58 15 75 23 95 45 134 65 258 132 136 75 178 110 146 122 -8 3 -35 -3 -59 -15 -43 -21 -147 -38 -264 -43 -48 -2 -66 1 -82 16 -21 19 -58 15 -46 -4 16 -26 -238 28 -385 81 -73 27 -189 81 -280 130 -160 87 -474 348 -468 388 2 11 -5 16 -21 16 -16 0 -25 -6 -27 -20 -4 -25 -54 -67 -121 -99 -145 -72 -334 6 -413 169 -12 24 -24 61 -27 82 -3 21 -15 48 -27 61 -18 20 -21 36 -20 100 0 91 27 153 105 251 49 60 59 87 38 108 -15 15 -35 120 -49 258 -11 120 -10 137 21 295 28 143 111 347 202 496 109 178 181 290 223 344 103 136 371 337 569 427 145 66 340 119 406 110 21 -3 41 -2 44 3 3 4 78 6 167 5 168 -3 241 -15 393 -67 186 -64 468 -248 525 -344 19 -33 43 -44 55 -24 8 13 -85 187 -135 254 -122 164 -291 274 -500 323 -58 14 -113 29 -122 34 -25 13 -315 12 -323 -2 -4 -6 -26 -9 -49 -8 -22 1 -48 -1 -56 -4 -8 -3 -42 -11 -75 -17 -69 -13 -243 -56 -295 -72 -60 -19 -303 -109 -349 -130 -50 -22 -76 -20 -76 6 0 24 56 53 194 103 278 101 561 171 642 160 22 -3 42 -1 45 5 3 5 23 8 45 7 21 -2 41 0 45 4 11 11 102 8 109 -3 20 -32 75 13 59 48 -4 9 -8 22 -8 27 -1 6 -21 9 -47 7 -27 -2 -50 1 -54 7 -9 15 -441 15 -451 0 -4 -7 -26 -9 -57 -6 -31 3 -59 -1 -76 -9 -14 -8 -39 -14 -54 -14 -16 0 -47 -4 -70 -10 -23 -5 -83 -18 -133 -30 -50 -11 -133 -34 -184 -51 -74 -24 -95 -28 -102 -17 -25 39 3 52 242 114 177 46 394 77 481 68 45 -4 69 -3 73 5 9 15 148 15 163 0 12 -12 45 -5 41 8 -1 4 6 25 15 47 9 21 17 44 17 51 0 7 7 28 15 48 13 32 13 37 -4 58 -17 21 -21 22 -44 10 -18 -9 -42 -11 -85 -6 -34 4 -67 3 -73 -1 -16 -10 -482 -9 -498 0 -7 5 -38 5 -69 1 -60 -7 -235 19 -342 51 -78 23 -166 71 -200 110 -79 91 -53 252 51 317 54 33 217 59 249 39 10 -6 34 -8 54 -5 39 6 136 -6 336 -43 74 -14 151 -28 170 -31 19 -3 41 -10 47 -15 8 -6 45 -7 92 -3 54 5 81 3 86 -4 9 -15 270 -13 299 1 12 6 28 14 36 18 15 7 31 66 50 190 22 141 50 450 50 552 0 103 -1 109 -22 117 -25 9 -42 5 -33 -9 10 -16 -168 -64 -430 -117 -79 -16 -391 -126 -473 -166 -302 -151 -534 -375 -784 -757 -41 -63 -87 -136 -102 -162 -28 -49 -61 -63 -72 -33 -10 26 187 339 315 500 184 232 448 439 683 536 90 37 308 109 329 109 9 0 27 8 40 19 l23 18 -26 59 c-37 84 -55 154 -69 270 -11 85 -10 112 3 177 8 42 13 79 10 82 -9 9 -126 4 -142 -5z"/>
 <path d="M5429 6675 c-4 -15 -7 -23 -20 -50 -20 -43 -17 -231 5 -315 26 -100 38 -131 69 -182 30 -50 49 -58 76 -34 9 8 48 19 88 25 163 25 303 90 361 170 19 26 21 38 16 88 -7 64 -21 95 -59 141 -21 26 -49 39 -153 71 -70 22 -161 47 -202 56 -41 9 -83 21 -92 26 -18 9 -87 13 -89 4z"/>
 <path d="M6400 6600 c-6 -11 -17 -20 -25 -20 -7 0 -38 -28 -69 -61 -61 -68 -68 -92 -63 -214 2 -52 9 -82 28 -115 22 -41 28 -45 68 -48 25 -2 50 2 60 10 9 7 33 22 54 32 79 40 171 178 184 275 5 36 2 42 -53 100 -58 61 -59 61 -116 61 -47 0 -59 -4 -68 -20z"/>
 <path d="M6666 6338 c-9 -13 -35 -52 -58 -87 -60 -92 -146 -148 -229 -150 -60 -1 -63 -15 -19 -123 50 -125 91 -293 94 -388 3 -63 0 -81 -20 -115 -12 -22 -41 -87 -64 -145 -22 -58 -50 -125 -60 -150 -17 -39 -187 -538 -193 -565 -1 -5 14 -10 33 -10 27 0 35 4 35 17 0 23 41 66 129 136 192 152 339 363 440 634 40 108 43 130 21 148 -19 16 -19 66 1 121 30 83 14 394 -26 524 -35 111 -41 136 -38 151 5 27 -28 29 -46 2z"/>
 <path d="M6096 6328 c-9 -12 -16 -27 -16 -32 0 -5 -16 -31 -35 -57 l-35 -49 0 -153 c-1 -187 -35 -527 -69 -679 -15 -67 16 -99 62 -63 11 7 38 16 60 20 50 8 162 48 231 84 42 22 56 36 78 81 33 68 35 125 8 238 -39 163 -109 345 -203 526 -23 44 -42 85 -42 90 0 20 -24 16 -39 -6z"/>
 <path d="M6065 4911 c-6 -6 -58 -18 -115 -27 -58 -9 -110 -20 -115 -25 -6 -4 -19 -36 -29 -71 -10 -35 -22 -75 -28 -90 -14 -37 -4 -58 26 -58 14 0 27 -4 30 -8 3 -5 30 -7 60 -4 41 3 62 0 81 -12 27 -18 69 -18 71 -1 0 6 4 17 7 25 23 53 77 237 75 254 -3 23 -46 34 -63 17z"/>
 <path d="M5606 4102 c-3 -5 -32 -13 -63 -16 -241 -28 -363 -70 -543 -190 -91 -60 -238 -206 -305 -301 -99 -142 -190 -377 -214 -550 -15 -105 -13 -321 3 -435 8 -52 30 -143 50 -203 20 -59 34 -112 31 -117 -3 -5 3 -13 12 -19 10 -5 15 -13 11 -17 -5 -4 -3 -13 3 -21 6 -7 8 -13 4 -13 -4 0 -1 -7 6 -16 7 -9 14 -22 15 -30 4 -26 46 -75 63 -72 22 4 26 44 7 74 -9 13 -13 24 -10 24 4 0 -1 9 -11 20 -10 11 -14 20 -10 20 4 0 1 8 -8 18 -8 9 -16 20 -16 25 0 4 -7 20 -14 35 -8 15 -20 52 -27 82 -7 30 -18 73 -25 95 -41 125 -52 416 -22 570 22 113 63 237 108 326 72 145 218 314 361 418 133 96 343 187 488 210 36 6 85 17 110 24 38 11 45 17 45 37 0 18 -6 26 -22 28 -11 2 -24 -1 -27 -6z"/>
 <path d="M6765 3580 c-5 -8 8 -36 78 -160 126 -224 190 -405 222 -635 47 -325 -23 -641 -214 -970 -146 -253 -354 -419 -616 -495 -115 -33 -141 -63 -92 -107 23 -22 111 -31 122 -13 3 4 24 11 48 15 203 34 391 169 553 395 37 52 114 177 114 185 0 3 11 28 24 57 56 122 83 218 126 447 29 150 28 399 -1 519 -49 202 -82 295 -171 477 -21 44 -50 98 -63 120 -14 22 -28 47 -31 55 -4 8 -18 30 -31 48 -14 18 -22 36 -19 39 8 9 -14 33 -30 33 -7 0 -16 -4 -19 -10z"/>
 <path d="M6629 2153 c-1 -4 -1 -11 -1 -15 1 -3 -5 -12 -13 -18 -21 -17 -19 -54 5 -75 10 -9 18 -22 17 -29 -1 -6 12 -11 31 -11 17 0 32 3 32 8 0 4 9 16 20 27 23 23 26 60 8 79 -7 6 -13 17 -13 24 0 13 -84 23 -86 10z"/>
 <path d="M4365 2141 c-3 -6 -3 -11 2 -11 4 0 -8 -9 -27 -21 -51 -30 -119 -98 -141 -141 -35 -68 -23 -158 33 -241 33 -48 116 -117 142 -117 8 0 16 -7 20 -15 4 -11 20 -15 55 -15 56 0 107 29 180 101 44 44 49 57 29 78 -7 6 -13 17 -13 24 0 7 -11 12 -24 12 -19 0 -24 -6 -27 -28 -3 -35 -29 -76 -52 -84 -9 -3 -27 -15 -40 -26 -21 -19 -27 -20 -79 -9 -33 7 -72 24 -93 40 -41 33 -80 104 -80 146 0 78 78 162 160 173 23 3 44 12 47 19 2 7 -8 34 -24 61 -15 26 -26 50 -23 53 3 3 -5 6 -17 8 -11 2 -24 -2 -28 -7z"/>
 <path d="M6508 1907 c-46 -42 -78 -92 -78 -122 0 -34 42 -95 85 -124 52 -35 131 -44 141 -16 3 8 14 17 24 20 35 11 60 67 60 134 0 59 -2 64 -42 106 -40 42 -47 45 -93 45 -44 -1 -55 -5 -97 -43z"/>
 <path d="M6212 1615 c-41 -42 -53 -101 -28 -140 18 -28 88 -75 111 -75 8 0 36 20 61 45 43 41 46 47 41 81 -4 26 -20 51 -49 81 -54 55 -88 57 -136 8z"/>
 <path d="M5719 1326 c-3 -13 -6 -22 -13 -39 -5 -9 -4 -23 2 -30 6 -6 11 -16 11 -22 0 -5 9 -11 20 -13 28 -5 57 50 36 68 -8 7 -13 17 -12 23 2 11 -42 24 -44 13z"/>
 <path d="M5909 1313 c-1 -5 -1 -11 -1 -15 1 -3 -5 -12 -13 -18 -20 -17 -19 -32 6 -75 17 -28 27 -35 46 -33 13 2 24 8 24 13 0 6 7 18 16 27 13 15 13 21 -6 62 -16 37 -25 46 -45 46 -14 0 -27 -3 -27 -7z"/>
 </g>

</svg>